<?xml version="1.0" standalone="no"?><!DOCTYPE svg PUBLIC "-//W3C//DTD SVG 1.1//EN" "http://www.w3.org/Graphics/SVG/1.1/DTD/svg11.dtd"><svg t="1630565693102" class="icon" viewBox="0 0 1024 1024" version="1.1" xmlns="http://www.w3.org/2000/svg" p-id="15232" data-spm-anchor-id="a313x.7781069.0.i30" width="800" height="800" xmlns:xlink="http://www.w3.org/1999/xlink"><defs><style type="text/css"></style></defs><path d="M512 1007.483871c-127.174194 0-252.696774-49.548387-350.141935-145.341936-46.245161-46.245161-80.929032-99.096774-105.703226-158.554838-99.096774-236.180645-4.954839-505.393548 219.664516-627.612903 224.619355-122.219355 503.741935-54.503226 645.780645 158.554838 143.690323 213.058065 102.4 495.483871-95.793548 658.993549-90.83871 75.974194-203.148387 113.96129-313.806452 113.96129z m-338.580645-156.903226c175.070968 175.070968 452.541935 188.283871 642.477419 29.729032s231.225806-431.070968 92.490323-637.52258a478.802581 478.802581 0 0 0-624.309678-151.948387C66.064516 209.754839-24.774194 470.709677 71.019355 698.632258c24.774194 56.154839 59.458065 109.006452 102.4 151.948387z" p-id="15233" fill="#ffffff"></path><path d="M422.812903 701.935484c9.909677 4.954839 19.819355 8.258065 31.380645 8.258064 13.212903 0 26.425806-3.303226 37.987097-11.56129l203.148387-125.522581c23.122581-13.212903 36.335484-37.987097 34.683871-62.76129 0-24.774194-13.212903-47.896774-34.683871-61.109677l-204.8-125.522581c-21.470968-13.212903-47.896774-14.864516-69.367742-3.303226-24.774194 13.212903-39.63871 37.987097-37.987096 66.064516v251.045162c0 26.425806 14.864516 51.2 39.638709 64.412903z" p-id="15234" fill="#ffffff"></path></svg>